<mxfile host="app.diagrams.net" modified="2023-12-29T15:51:00.050Z" agent="Mozilla/5.0 (Windows NT 10.0; Win64; x64) AppleWebKit/537.36 (KHTML, like Gecko) Chrome/120.0.0.0 Safari/537.36" etag="er_Psbb1XeqKE6GcuI_J" version="22.1.16" type="device">
  <diagram name="Страница — 1" id="uUIDUMG1MpHDD658ILw9">
    <mxGraphModel dx="2678" dy="1592" grid="0" gridSize="10" guides="1" tooltips="1" connect="1" arrows="1" fold="1" page="0" pageScale="1" pageWidth="827" pageHeight="1169" math="0" shadow="0">
      <root>
        <mxCell id="0" />
        <mxCell id="1" parent="0" />
        <mxCell id="mrv7jFTRW9yA8U9GQdf--1" value="TravelAgent" style="shape=umlActor;verticalLabelPosition=bottom;verticalAlign=top;html=1;outlineConnect=0;fontSize=16;" vertex="1" parent="1">
          <mxGeometry x="-212" y="-11" width="30" height="60" as="geometry" />
        </mxCell>
        <mxCell id="mrv7jFTRW9yA8U9GQdf--2" value="Client" style="shape=umlActor;verticalLabelPosition=bottom;verticalAlign=top;html=1;outlineConnect=0;fontSize=16;" vertex="1" parent="1">
          <mxGeometry x="-95" y="225" width="30" height="60" as="geometry" />
        </mxCell>
        <mxCell id="mrv7jFTRW9yA8U9GQdf--3" value="Tour&lt;br&gt;" style="shape=umlActor;verticalLabelPosition=bottom;verticalAlign=top;html=1;outlineConnect=0;fontSize=16;" vertex="1" parent="1">
          <mxGeometry x="-209" y="221" width="30" height="60" as="geometry" />
        </mxCell>
        <mxCell id="mrv7jFTRW9yA8U9GQdf--4" value="Добавление&amp;nbsp;&lt;br&gt;пользователя" style="ellipse;whiteSpace=wrap;html=1;fontSize=16;" vertex="1" parent="1">
          <mxGeometry x="-88" y="-21" width="120" height="80" as="geometry" />
        </mxCell>
        <mxCell id="mrv7jFTRW9yA8U9GQdf--5" value="вывод пользователей" style="ellipse;whiteSpace=wrap;html=1;fontSize=16;" vertex="1" parent="1">
          <mxGeometry x="-424" y="-21" width="120" height="80" as="geometry" />
        </mxCell>
        <mxCell id="mrv7jFTRW9yA8U9GQdf--6" value="регистрация&amp;nbsp;&lt;br&gt;пользователя" style="ellipse;whiteSpace=wrap;html=1;fontSize=16;" vertex="1" parent="1">
          <mxGeometry x="-257" y="-121" width="120" height="80" as="geometry" />
        </mxCell>
        <mxCell id="mrv7jFTRW9yA8U9GQdf--7" value="получение&amp;nbsp;&lt;br&gt;ID пользователя" style="ellipse;whiteSpace=wrap;html=1;fontSize=16;" vertex="1" parent="1">
          <mxGeometry x="-91" y="-121" width="131" height="88" as="geometry" />
        </mxCell>
        <mxCell id="mrv7jFTRW9yA8U9GQdf--8" value="" style="endArrow=none;html=1;rounded=0;fontSize=12;startSize=8;endSize=8;curved=1;entryX=0.5;entryY=0.5;entryDx=0;entryDy=0;entryPerimeter=0;exitX=1;exitY=0.5;exitDx=0;exitDy=0;" edge="1" parent="1" source="mrv7jFTRW9yA8U9GQdf--5" target="mrv7jFTRW9yA8U9GQdf--1">
          <mxGeometry width="50" height="50" relative="1" as="geometry">
            <mxPoint x="-301" y="25" as="sourcePoint" />
            <mxPoint x="225" y="193" as="targetPoint" />
          </mxGeometry>
        </mxCell>
        <mxCell id="mrv7jFTRW9yA8U9GQdf--9" value="" style="endArrow=none;html=1;rounded=0;fontSize=12;startSize=8;endSize=8;curved=1;exitX=0.5;exitY=0;exitDx=0;exitDy=0;exitPerimeter=0;entryX=0.5;entryY=1;entryDx=0;entryDy=0;" edge="1" parent="1" source="mrv7jFTRW9yA8U9GQdf--1" target="mrv7jFTRW9yA8U9GQdf--6">
          <mxGeometry width="50" height="50" relative="1" as="geometry">
            <mxPoint x="175" y="243" as="sourcePoint" />
            <mxPoint x="-194" y="-33" as="targetPoint" />
          </mxGeometry>
        </mxCell>
        <mxCell id="mrv7jFTRW9yA8U9GQdf--10" value="" style="endArrow=none;html=1;rounded=0;fontSize=12;startSize=8;endSize=8;curved=1;exitX=0;exitY=0.5;exitDx=0;exitDy=0;entryX=0.5;entryY=0.5;entryDx=0;entryDy=0;entryPerimeter=0;" edge="1" parent="1" source="mrv7jFTRW9yA8U9GQdf--4" target="mrv7jFTRW9yA8U9GQdf--1">
          <mxGeometry width="50" height="50" relative="1" as="geometry">
            <mxPoint x="-301" y="7" as="sourcePoint" />
            <mxPoint x="-216" y="5" as="targetPoint" />
          </mxGeometry>
        </mxCell>
        <mxCell id="mrv7jFTRW9yA8U9GQdf--11" value="" style="endArrow=none;html=1;rounded=0;fontSize=12;startSize=8;endSize=8;curved=1;exitX=1;exitY=0.3333333333333333;exitDx=0;exitDy=0;exitPerimeter=0;entryX=0;entryY=1;entryDx=0;entryDy=0;" edge="1" parent="1" source="mrv7jFTRW9yA8U9GQdf--1" target="mrv7jFTRW9yA8U9GQdf--7">
          <mxGeometry width="50" height="50" relative="1" as="geometry">
            <mxPoint x="175" y="243" as="sourcePoint" />
            <mxPoint x="225" y="193" as="targetPoint" />
          </mxGeometry>
        </mxCell>
        <mxCell id="mrv7jFTRW9yA8U9GQdf--12" value="вывод туров" style="ellipse;whiteSpace=wrap;html=1;fontSize=16;" vertex="1" parent="1">
          <mxGeometry x="-424" y="91" width="120" height="80" as="geometry" />
        </mxCell>
        <mxCell id="mrv7jFTRW9yA8U9GQdf--13" value="" style="endArrow=none;html=1;rounded=0;fontSize=12;startSize=8;endSize=8;curved=1;exitX=0.5;exitY=0;exitDx=0;exitDy=0;entryX=0;entryY=1;entryDx=0;entryDy=0;entryPerimeter=0;" edge="1" parent="1" source="mrv7jFTRW9yA8U9GQdf--12" target="mrv7jFTRW9yA8U9GQdf--1">
          <mxGeometry width="50" height="50" relative="1" as="geometry">
            <mxPoint x="-298" y="98" as="sourcePoint" />
            <mxPoint x="-248" y="48" as="targetPoint" />
          </mxGeometry>
        </mxCell>
      </root>
    </mxGraphModel>
  </diagram>
</mxfile>
